<?xml version="1.0" standalone="no"?>
<!DOCTYPE svg PUBLIC "-//W3C//DTD SVG 20010904//EN"
 "http://www.w3.org/TR/2001/REC-SVG-20010904/DTD/svg10.dtd">
<svg version="1.0" xmlns="http://www.w3.org/2000/svg"
 width="723.000000pt" height="719.000000pt" viewBox="0 0 723.000000 719.000000"
 preserveAspectRatio="xMidYMid meet">

<g transform="translate(0.000000,719.000000) scale(0.100000,-0.100000)"
fill="#000000" stroke="none">
<path d="M0 3595 l0 -3595 3615 0 3615 0 0 3595 0 3595 -3615 0 -3615 0 0
-3595z m4060 2700 l0 -225 115 0 115 0 0 -450 0 -450 110 0 110 0 0 -340 0
-340 115 0 115 0 0 -335 0 -335 110 0 110 0 0 -340 0 -340 115 0 115 0 0 -450
0 -450 110 0 110 0 0 -340 0 -340 115 0 115 0 0 -110 0 -110 225 0 225 0 0
225 0 225 110 0 110 0 0 340 0 340 -110 0 -110 0 0 110 0 110 -115 0 -115 0 0
115 0 115 -110 0 -110 0 0 110 0 110 225 0 225 0 0 -110 0 -110 110 0 110 0 0
-225 0 -225 115 0 115 0 0 225 0 225 225 0 225 0 0 -115 0 -115 -115 0 -115 0
0 -110 0 -110 -110 0 -110 0 0 -565 0 -565 110 0 110 0 0 -340 0 -340 -1235 0
-1235 0 0 225 0 225 -115 0 -115 0 0 340 0 340 -110 0 -110 0 0 110 0 110
-450 0 -450 0 0 -225 0 -225 -115 0 -115 0 0 -225 0 -225 -110 0 -110 0 0
-225 0 -225 -900 0 -900 0 0 225 0 225 110 0 110 0 0 115 0 115 115 0 115 0 0
225 0 225 110 0 110 0 0 340 0 340 115 0 115 0 0 225 0 225 110 0 110 0 0 225
0 225 115 0 115 0 0 335 0 335 110 0 110 0 0 225 0 225 115 0 115 0 0 340 0
340 110 0 110 0 0 225 0 225 115 0 115 0 0 225 0 225 110 0 110 0 0 225 0 225
450 0 450 0 0 -225z"/>
<path d="M3390 3480 l0 -340 110 0 110 0 0 340 0 340 -110 0 -110 0 0 -340z"/>
</g>
</svg>
